HIERARCHY
ROOT hip
{
	OFFSET 0.000000 0.000000 0.000000 
	CHANNELS 6 Xposition Yposition Zposition Xrotation Zrotation Yrotation
	JOINT abdomen
	{
		OFFSET 0.000000 3.402643 0.000000 
		CHANNELS 3 Xrotation Zrotation Yrotation
		JOINT chest
		{
			OFFSET 0.000000 8.438565 -0.680529 
			CHANNELS 3 Xrotation Zrotation Yrotation
			JOINT neck
			{
				OFFSET 0.000000 10.207942 -0.272212 
				CHANNELS 3 Xrotation Zrotation Yrotation
				JOINT head
				{
					OFFSET 0.000000 3.130431 0.000000 
					CHANNELS 3 Xrotation Zrotation Yrotation
					End Site
					{
						OFFSET 0.000000 3.130435 0.000000 
					}
				}
			}
			JOINT lCollar
			{
				OFFSET 3.470700 6.669187 -0.816635 
				CHANNELS 3 Yrotation Zrotation Xrotation
				JOINT lShldr
				{
					OFFSET 3.198488 0.000000 0.000000 
					CHANNELS 3 Zrotation Yrotation Xrotation
					JOINT lForeArm
					{
						OFFSET 10.139888 0.000000 0.000000 
						CHANNELS 3 Yrotation Zrotation Xrotation
						JOINT lHand
						{
							OFFSET 8.370511 0.000000 0.000000 
							CHANNELS 3 Zrotation Yrotation Xrotation
							End Site
							{
								OFFSET 4.083176 0.000000 0.000000 
							}
						}
					}
				}
			}
			JOINT rCollar
			{
				OFFSET -3.470700 6.669187 -0.816635 
				CHANNELS 3 Yrotation Zrotation Xrotation
				JOINT rShldr
				{
					OFFSET -3.198488 0.000000 0.000000 
					CHANNELS 3 Zrotation Yrotation Xrotation
					JOINT rForeArm
					{
						OFFSET -10.139888 0.000000 0.000000 
						CHANNELS 3 Yrotation Zrotation Xrotation
						JOINT rHand
						{
							OFFSET -8.370511 0.000000 0.000000 
							CHANNELS 3 Zrotation Yrotation Xrotation
							End Site
							{
								OFFSET -4.083176 0.000000 0.000000 
							}
						}
					}
				}
			}
		}
	}
	JOINT lThigh
	{
		OFFSET 5.308129 -1.633274 1.361059 
		CHANNELS 3 Xrotation Zrotation Yrotation
		JOINT lShin
		{
			OFFSET -2.041588 -20.007561 0.000000 
			CHANNELS 3 Xrotation Zrotation Yrotation
			JOINT lFoot
			{
				OFFSET 0.000000 -19.190928 -1.224953 
				CHANNELS 3 Xrotation Yrotation Zrotation
				End Site
				{
					OFFSET 0.000000 -2.449906 4.627600 
				}
			}
		}
	}
	JOINT rThigh
	{
		OFFSET -5.308129 -1.633274 1.361059 
		CHANNELS 3 Xrotation Zrotation Yrotation
		JOINT rShin
		{
			OFFSET 2.041588 -20.007561 0.000000 
			CHANNELS 3 Xrotation Zrotation Yrotation
			JOINT rFoot
			{
				OFFSET 0.000000 -19.190928 -1.224953 
				CHANNELS 3 Xrotation Yrotation Zrotation
				End Site
				{
					OFFSET 0.000000 -2.449906 4.627600 
				}
			}
		}
	}
}
MOTION
Frames: 13
Frame Time: 0.011111
42.989849 51.094643 7.195222 174.743073 -175.851898 -0.746660 1.485778 -4.153686 -4.795944 -3.228340 4.052437 -1.326457 -9.873273 -0.811005 0.864751 21.774424 -5.144037 1.389575 1.452834 -1.250150 0.768655 -68.309937 -70.820305 22.727535 -60.118019 9.842236 11.429984 6.992188 16.005859 -19.665272 -6.408587 0.914528 1.823621 77.384460 22.348972 -18.495567 34.801758 -2.751491 1.735377 -7.001954 -15.996095 7.617187 7.058331 -1.972062 -0.718330 42.529114 -5.009981 -3.252145 3.391589 -1.679019 -0.397866 -32.126659 -2.441808 14.557493 37.150120 5.137672 2.822585 -9.844213 -0.665666 0.498788 
43.076515 51.133896 6.735311 174.746750 -176.531097 -0.505564 1.428411 -3.468943 -4.866887 -3.228372 3.906171 -1.356841 -10.138084 -1.136281 0.857891 22.427948 -4.406099 1.454219 1.452834 -1.250150 0.768655 -68.949516 -69.702812 23.425369 -58.965065 9.709194 10.931020 6.992188 16.005859 -19.108635 -6.408587 0.914528 1.823621 77.592178 23.400080 -18.430098 35.686237 -3.126756 2.019181 -7.001954 -15.996095 7.294923 4.961326 -1.004064 -0.631908 45.471901 -4.911891 -3.491101 2.718775 -1.984200 -0.453876 -31.180820 -1.679826 14.249331 36.952591 5.137517 2.803962 -10.200670 -0.781671 0.458717 
43.152008 51.159866 6.290497 174.935547 -177.170822 -0.396715 1.474239 -2.868823 -4.690251 -2.954424 3.785186 -1.300685 -10.403285 -1.423389 0.737804 22.978512 -3.711905 1.296987 1.452834 -1.250150 0.768655 -69.232224 -69.749847 24.568216 -56.346729 9.330070 9.807961 6.992188 16.005859 -18.727774 -6.408587 0.914528 1.823621 77.899895 25.188135 -18.505110 36.174500 -3.336538 2.173592 -7.001954 -15.996095 7.314454 3.013416 -0.039045 -0.358019 48.242794 -4.823792 -3.713876 1.317556 -1.987626 -0.553234 -30.029600 -0.910326 14.255846 36.705471 5.138224 2.774868 -10.938951 -1.040781 0.394208 
43.205154 51.190964 5.868332 174.996216 -177.689377 -0.415486 1.450122 -2.337535 -4.362557 -3.022992 3.519017 -1.220212 -10.482251 -1.554650 0.615231 23.815168 -3.219927 1.158608 1.452834 -1.250150 0.768655 -70.675629 -67.826096 23.200226 -56.368633 9.336265 9.818990 6.992188 16.005859 -22.428944 -6.408587 0.914528 1.823621 78.250374 26.580193 -18.653643 36.763439 -3.585712 2.372719 -7.001954 -15.996095 7.568359 0.894542 0.846089 0.146287 50.725491 -4.735153 -3.863203 -0.557361 -1.541780 -0.650761 -29.133322 -0.275267 14.203706 36.476139 5.153381 2.731712 -11.420445 -1.155774 0.361829 
43.258602 51.254986 5.441940 175.095810 -178.341446 -0.367440 1.545481 -1.644669 -3.933992 -3.345771 3.159868 -1.114916 -10.325402 -1.413134 0.416172 24.277540 -3.225219 0.847103 1.452834 -1.250150 0.768655 -71.711182 -66.676407 22.483547 -54.673298 9.038060 9.107932 6.992188 16.005859 -25.885979 -6.408587 0.914528 1.823621 78.643181 27.595768 -19.043980 37.643829 -3.947354 2.658746 -7.001954 -15.996095 7.646484 -1.257244 1.900427 0.675293 52.903782 -4.622870 -4.054077 -2.445106 -1.396513 -0.709878 -28.143709 0.468542 14.049150 36.309135 5.147474 2.742501 -11.798086 -1.325606 0.288599 
43.323528 51.323235 5.005884 175.360687 -179.017410 -0.155425 1.686075 -0.961170 -3.608896 -3.482619 2.883507 -1.035381 -9.865747 -1.275025 0.191931 24.214693 -3.341698 0.449942 1.452834 -1.250150 0.768655 -72.436935 -65.694740 22.371565 -52.900997 8.683805 8.379872 6.992188 16.005859 -28.190666 -6.408587 0.914528 1.823621 79.056427 28.854937 -19.452688 38.416397 -4.259164 2.921650 -7.001954 -15.996095 7.460938 -3.182370 3.016345 0.922324 54.812889 -4.543288 -4.178792 -4.225725 -1.691571 -0.807271 -26.850784 1.219300 13.864156 36.179352 5.157938 2.730161 -12.191437 -1.523524 0.220705 
43.373356 51.350414 4.600026 175.536880 -179.391663 -0.138631 1.887173 -0.566980 -3.343259 -3.629183 2.617152 -0.964740 -10.041144 -1.169849 0.058322 24.806173 -3.493692 0.206223 1.452834 -1.250150 0.768655 -73.027924 -64.528366 21.956692 -51.660305 8.405419 7.864260 6.992188 16.005859 -30.202383 -6.408587 0.914528 1.823621 79.404167 30.119976 -14.050909 39.271049 -4.587986 3.215176 -7.001954 -15.996095 12.695313 -5.025597 3.727598 1.188729 56.425560 -4.485033 -4.300741 -5.881790 -1.843339 -0.876298 -25.878141 1.620866 13.552260 36.080658 5.157914 2.735905 -12.252403 -1.394438 0.246120 
43.408993 51.342258 4.214400 175.742294 -179.921585 -0.395674 2.254647 0.109616 -2.960111 -3.814761 2.301826 -0.864914 -10.421983 -1.152985 -0.006433 25.317167 -3.541231 0.049520 1.452834 -1.250150 0.768655 -73.610085 -63.322937 21.338051 -50.613564 8.160670 7.444781 6.992188 16.005859 -32.292229 -6.408587 0.914528 1.823621 79.623848 31.288450 -8.045448 40.391983 -5.022333 3.606231 -7.001954 -15.996095 18.593750 -6.926502 4.633644 1.673361 57.823158 -4.398961 -4.398877 -7.489881 -1.998664 -0.950715 -25.006004 2.254589 13.192923 36.080650 5.157924 2.735908 -12.492700 -1.058288 0.305622 
43.451572 51.329884 3.827568 176.054703 179.591156 -0.458836 2.670761 0.599750 -2.588080 -4.029650 2.103971 -0.764841 -10.060991 -1.290481 -0.118244 24.932421 -3.245624 -0.098187 1.452834 -1.250150 0.768655 -74.200371 -61.990440 21.002035 -49.632515 7.917822 7.055553 6.992188 16.005859 -34.469963 -6.408587 0.914528 1.823621 79.796181 32.451435 -3.435670 41.495571 -5.417993 3.994004 -7.001954 -15.996095 23.466797 -8.715055 5.484457 1.891962 59.022118 -4.348990 -4.476733 -9.113099 -2.373837 -1.041906 -24.046421 2.907798 13.125946 36.168583 5.163685 2.712144 -13.024714 -0.988594 0.295343 
43.513474 51.329277 3.448283 176.230408 179.558701 -0.283532 2.938255 0.431074 -2.426693 -4.127406 2.161664 -0.720082 -9.954505 -1.536292 -0.166742 24.674049 -2.925558 -0.188962 1.452834 -1.250150 0.768655 -74.769745 -60.863152 20.197508 -48.487812 7.616128 6.601928 6.992188 16.005859 -37.018787 -6.408587 0.914528 1.823621 79.907288 33.816376 0.285933 42.573441 -5.798563 4.385317 -7.001954 -15.996095 27.392576 -10.618325 5.777337 1.805559 60.044228 -4.300375 -4.548593 -10.446319 -2.732081 -1.139460 -23.342867 3.132107 13.419759 36.318214 5.153272 2.734160 -13.331535 -1.370733 0.190744 
43.575684 51.322330 3.071415 176.318314 179.640961 -0.199247 3.197564 0.222953 -2.236467 -4.078527 2.123582 -0.669124 -10.375463 -1.713895 -0.143060 24.798807 -2.763515 -0.192917 1.452834 -1.250150 0.768655 -75.211342 -59.717224 19.324463 -47.844097 7.436750 6.348706 6.992188 16.005859 -38.835197 -6.408587 0.914528 1.823621 80.122261 35.467094 3.503888 43.706573 -6.184657 4.795835 -7.001954 -15.996095 30.634768 -12.645025 5.887931 1.645899 60.850464 -4.251778 -4.611040 -11.447029 -2.973043 -1.203993 -22.886803 3.240637 13.621938 36.586903 5.138071 2.760318 -13.646087 -1.686670 0.098630 
43.616447 51.291832 2.689414 176.337860 179.636139 -0.277714 3.257955 0.156524 -1.743366 -4.166324 1.869980 -0.523636 -10.267459 -1.648021 -0.277240 24.750519 -2.700765 -0.427414 1.452834 -1.250150 0.768655 -75.629196 -57.995216 18.902475 -47.823654 7.432959 6.348767 6.992188 16.005859 -39.675041 -6.408587 0.914528 1.823621 80.461494 36.999157 5.412697 44.607834 -6.478463 5.130107 -7.001954 -15.996095 32.958981 -14.699920 6.051516 1.551118 61.459476 -4.222594 -4.646949 -12.456061 -3.337057 -1.298908 -22.566765 3.407546 13.602656 36.932938 5.137509 2.812893 -13.908138 -1.711098 0.069653 
43.647858 51.248348 2.298049 176.445129 179.376144 -0.195305 3.315311 0.384086 -1.251686 -4.185737 1.646483 -0.385479 -9.954599 -1.665555 -0.451430 24.445772 -2.472550 -0.725288 1.452834 -1.250150 0.768655 -76.129402 -56.262821 18.794052 -47.885933 7.450867 6.365542 6.992188 16.005859 -39.977772 -6.408587 0.914528 1.823621 80.595451 38.451447 7.131571 45.439735 -6.739944 5.440062 -7.001954 -15.996095 35.185547 -16.731737 6.462116 1.367411 61.862507 -4.194582 -4.665589 -13.249548 -3.630044 -1.391265 -22.070189 3.710943 13.214496 37.359436 5.120548 2.825267 -13.498656 -1.786542 0.089428 
